<svg xmlns="http://www.w3.org/2000/svg" data-name="Layer 1" viewBox="0 0 100 125" x="0px" y="0px"><title>Artboard 94</title><path d="M90.58,9.42a23.63,23.63,0,0,0-33.42,0L35.68,30.9,9.43,57.16A23.63,23.63,0,0,0,42.84,90.58L69.1,64.33,90.58,42.84A23.65,23.65,0,0,0,90.58,9.42ZM38.07,85.8A16.88,16.88,0,0,1,14.2,61.93L35.68,40.46,59.54,64.33ZM69.36,16.24,50.17,35.43a3.39,3.39,0,0,1-4.8-4.79L64.56,11.45a3.39,3.39,0,1,1,4.8,4.79Z"/><text x="0" y="115" fill="#000000" font-size="5px" font-weight="bold" font-family="'Helvetica Neue', Helvetica, Arial-Unicode, Arial, Sans-serif">Created by Free Icons</text><text x="0" y="120" fill="#000000" font-size="5px" font-weight="bold" font-family="'Helvetica Neue', Helvetica, Arial-Unicode, Arial, Sans-serif">from the Noun Project</text></svg>